<?xml version="1.0" encoding="utf-8"?>
<!-- Generator: Adobe Illustrator 15.0.0, SVG Export Plug-In . SVG Version: 6.00 Build 0)  -->
<!DOCTYPE svg PUBLIC "-//W3C//DTD SVG 1.1//EN" "http://www.w3.org/Graphics/SVG/1.1/DTD/svg11.dtd">
<svg version="1.1" id="Layer_1" xmlns="http://www.w3.org/2000/svg" xmlns:xlink="http://www.w3.org/1999/xlink" x="0px" y="0px"
	 width="335.765px" height="443.045px" viewBox="0 0 335.765 443.045" enable-background="new 0 0 335.765 443.045"
	 xml:space="preserve">
<g>
	<path d="M209.993,262.359l-6.769,15.75h-49.003l-0.23,9.191h46.602l-6.787,15.738h-38.064
		c4.677,23.061,15.467,34.562,32.376,34.562c10.921,0,22.171-4.594,33.682-13.781l-0.228,33.041
		c-9.763,5.684-20.979,8.52-33.669,8.52c-18.376,0-33.191-5.895-44.424-17.707c-10.186-10.643-16.825-25.523-19.899-44.635h-16.824
		l6.769-15.738h8.747v-5.682c0-2.043,0.083-3.217,0.23-3.51h-15.977l6.787-15.75h11.152c3.513-17.641,10.723-31.57,21.665-41.773
		c11.528-11.078,25.949-16.621,43.3-16.621c12.24,0,25.504,3.639,39.826,10.933l-13.358,27.34
		c-10.219-6.562-19.751-9.844-28.664-9.844c-15.287,0-25.507,9.99-30.624,29.965H209.993z M145.31,94.365h45.849v28.931H145.31
		V94.365z M236.433,139.869l0.018,0.027c-0.081-0.108-0.147-0.213-0.246-0.319c-4.203-5.828-8.387-11.432-12.46-16.76
		c-5.396-9.026-8.239-20.007-1.618-35.849v-0.009l22.763-54.506L209.11,16.155L212.808,0h-89.849l4.708,20.585L90.878,32.453
		l22.76,54.506v0.009c11.25,26.945-4.858,39.813-14.322,52.928C52.469,204.692,0,297.461,0,353.387
		c0,92.734,72.041,89.646,167.872,89.646c95.866,0,167.893,3.088,167.893-89.646C335.765,297.451,283.264,204.683,236.433,139.869"
		/>
</g>
</svg>
